<svg id="Ebene_1" data-name="Ebene 1" xmlns="http://www.w3.org/2000/svg" viewBox="0 0 1156.44 334.48"><defs><style>.cls-1{fill:#2e4ea2;}</style></defs><title>drop_fake_logo</title><path class="cls-1" d="M317.75,119.82h62.33c44.88,0,75.66,27.05,75.66,68.6S425,257,380.08,257H317.75ZM378.51,231c27.25,0,45.08-16.26,45.08-42.53s-17.83-42.53-45.08-42.53h-29V231Z"/><path class="cls-1" d="M645.46,257,619,218.8H589.8V257H558.05V119.82h59.38c36.66,0,59.59,19,59.59,49.79,0,20.58-10.39,35.67-28.23,43.31L679.57,257ZM615.67,145.69H589.8v47.83h25.87c19.4,0,29.2-9,29.2-23.91C644.87,154.51,635.07,145.69,615.67,145.69Z"/><path class="cls-1" d="M771.88,188.42c0-40.77,31.75-70.95,75.07-70.95,43.12,0,75.07,30,75.07,70.95s-31.95,71-75.07,71C803.63,259.37,771.88,229.19,771.88,188.42Zm118,0c0-26.07-18.42-43.9-42.92-43.9S804,162.35,804,188.42s18.43,43.91,42.93,43.91S889.87,214.49,889.87,188.42Z"/><path class="cls-1" d="M1143.3,169.61c0,30.57-22.93,49.58-59.59,49.58h-27.63V257h-31.75V119.82h59.38C1120.37,119.82,1143.3,138.83,1143.3,169.61Zm-32.14,0c0-15.1-9.8-23.92-29.21-23.92h-25.87v47.63H1082C1101.36,193.32,1111.16,184.5,1111.16,169.61Z"/><path class="cls-1" d="M132.7,14.31a14.64,14.64,0,0,0,0,20.69l82.76,82.76A102.41,102.41,0,1,1,40.64,190.17,101.63,101.63,0,0,1,61,128.83l21,21a73.16,73.16,0,1,0,112.75-11.38L153.39,97.07a14.63,14.63,0,1,0-20.69,20.69l41.38,41.38a43.89,43.89,0,1,1-62.07,0,14.62,14.62,0,0,0,0-20.69L70.64,97.07a14.62,14.62,0,0,0-20.69,0,131.67,131.67,0,0,0,186.2,186.21,131.66,131.66,0,0,0,0-186.21L153.39,14.31A14.64,14.64,0,0,0,132.7,14.31Z"/><path class="cls-1" d="M104.53,80.38a15.71,15.71,0,0,0,2.74-.83,16.06,16.06,0,0,0,2.52-1.35,14.24,14.24,0,0,0,1.15-.85c.37-.31.74-.64,1.08-1a13.85,13.85,0,0,0,1.81-2.22,14.79,14.79,0,0,0,1.35-2.51A15.71,15.71,0,0,0,116,68.9c.09-.47.16-1,.22-1.43A13.69,13.69,0,0,0,116.3,66,14.63,14.63,0,0,0,101.67,51.4a13.9,13.9,0,0,0-1.44.08c-.48.05-1,.12-1.42.21a15.1,15.1,0,0,0-2.73.83,14.6,14.6,0,0,0-2.53,1.35c-.4.27-.79.55-1.16.85a14.17,14.17,0,0,0-1.07,1c-.33.34-.66.7-1,1.07s-.58.76-.84,1.16a14.24,14.24,0,0,0-1.35,2.53,14.5,14.5,0,0,0-.84,2.72c-.09.47-.16,1-.21,1.43a15.29,15.29,0,0,0,0,2.87c0,.48.12,1,.21,1.43a14.61,14.61,0,0,0,2.19,5.25c.26.4.55.8.84,1.16a16.38,16.38,0,0,0,2,2c.37.3.76.58,1.16.85a15.31,15.31,0,0,0,2.53,1.35,15.1,15.1,0,0,0,2.73.83c.47.09.94.16,1.42.21a13,13,0,0,0,2.88,0C103.58,80.54,104.06,80.47,104.53,80.38Z"/></svg>