<svg id="Ebene_1" data-name="Ebene 1" xmlns="http://www.w3.org/2000/svg" viewBox="0 0 286.49 334.48"><defs><style>.cls-1{fill:#2e4ea2;}</style></defs><title>drop_fake_logo_mobile</title><path class="cls-1" d="M132.7,14.31a14.64,14.64,0,0,0,0,20.69l82.76,82.76A102.41,102.41,0,1,1,40.64,190.17,101.63,101.63,0,0,1,61,128.83l21,21a73.16,73.16,0,1,0,112.75-11.38L153.39,97.07a14.63,14.63,0,1,0-20.69,20.69l41.38,41.38a43.89,43.89,0,1,1-62.07,0,14.62,14.62,0,0,0,0-20.69L70.64,97.07a14.62,14.62,0,0,0-20.69,0,131.67,131.67,0,0,0,186.2,186.21,131.66,131.66,0,0,0,0-186.21L153.39,14.31A14.64,14.64,0,0,0,132.7,14.31Z"/><path class="cls-1" d="M104.53,80.38a15.71,15.71,0,0,0,2.74-.83,16.06,16.06,0,0,0,2.52-1.35,14.24,14.24,0,0,0,1.15-.85c.37-.31.74-.64,1.08-1a13.85,13.85,0,0,0,1.81-2.22,14.79,14.79,0,0,0,1.35-2.51A15.71,15.71,0,0,0,116,68.9c.09-.47.16-1,.22-1.43A13.69,13.69,0,0,0,116.3,66,14.63,14.63,0,0,0,101.67,51.4a13.9,13.9,0,0,0-1.44.08c-.48.05-1,.12-1.42.21a15.1,15.1,0,0,0-2.73.83,14.6,14.6,0,0,0-2.53,1.35c-.4.27-.79.55-1.16.85a14.17,14.17,0,0,0-1.07,1c-.33.34-.66.7-1,1.07s-.58.76-.84,1.16a14.24,14.24,0,0,0-1.35,2.53,14.5,14.5,0,0,0-.84,2.72c-.09.47-.16,1-.21,1.43a15.29,15.29,0,0,0,0,2.87c0,.48.12,1,.21,1.43a14.61,14.61,0,0,0,2.19,5.25c.26.4.55.8.84,1.16a16.38,16.38,0,0,0,2,2c.37.3.76.58,1.16.85a15.31,15.31,0,0,0,2.53,1.35,15.1,15.1,0,0,0,2.73.83c.47.09.94.16,1.42.21a13,13,0,0,0,2.88,0C103.58,80.54,104.06,80.47,104.53,80.38Z"/></svg>