<svg id="Layer_1" data-name="Layer 1" xmlns="http://www.w3.org/2000/svg" viewBox="0 0 596.21 267.95"><defs><style>.cls-1{fill:#111010;}.cls-2{fill:#5393fe;}</style></defs><title>nickj-dark</title><path class="cls-1" d="M5.5,62.71H27.3l1,22.78A102.58,102.58,0,0,1,40.23,73.33a65.7,65.7,0,0,1,11.32-7.81,42.15,42.15,0,0,1,11.33-4.14,58.43,58.43,0,0,1,11.95-1.2q21.8,0,33,12.87T119,111.79V203.9H94.52V113.76q0-16.59-6.19-24.54t-18.42-8a29.37,29.37,0,0,0-8.79,1.34,32,32,0,0,0-8.93,4.64,73.2,73.2,0,0,0-10.06,8.93Q36.72,101.81,30,110.24V203.9H5.5Z"/><path class="cls-1" d="M176.23,83H134.46V62.71H201v120.8h42V203.9H129.82V183.51h46.41ZM184.8,3.51A19.53,19.53,0,0,1,192.4,5a18.44,18.44,0,0,1,6.11,4.15,19.87,19.87,0,0,1,4.08,6.12,18.83,18.83,0,0,1,1.48,7.52,19,19,0,0,1-1.48,7.46,19.57,19.57,0,0,1-4.08,6.18,18.14,18.14,0,0,1-6.11,4.15,20.23,20.23,0,0,1-15.19,0,18.19,18.19,0,0,1-6.12-4.15A19.91,19.91,0,0,1,167,30.23a19.16,19.16,0,0,1-1.47-7.46A19,19,0,0,1,167,15.25a20.24,20.24,0,0,1,4.08-6.12A18.48,18.48,0,0,1,177.21,5,19.45,19.45,0,0,1,184.8,3.51Z"/><path class="cls-1" d="M360.45,198.7a106.47,106.47,0,0,1-19.62,5.41,120.42,120.42,0,0,1-20.74,1.76q-33.46,0-51.54-18.14t-18.07-53a84.59,84.59,0,0,1,5.21-30.37A67.51,67.51,0,0,1,270.31,81a64.51,64.51,0,0,1,22.5-15,76.34,76.34,0,0,1,28.83-5.28,128.87,128.87,0,0,1,20.53,1.55,85.19,85.19,0,0,1,18.28,5.06V90.7a77.84,77.84,0,0,0-18.63-7,87.6,87.6,0,0,0-19.62-2.18,44.71,44.71,0,0,0-17.79,3.59,43.36,43.36,0,0,0-14.69,10.34,49,49,0,0,0-10,16.45,61.82,61.82,0,0,0-3.65,21.94q0,25.59,12.44,38.32T323,184.91a81.89,81.89,0,0,0,19.34-2.25,79.25,79.25,0,0,0,18.07-6.75Z"/><path class="cls-1" d="M500.38,203.9H466.77L401,128.24V203.9H376.49V5.2H401V127.26l63.42-64.55h32.34l-66.23,65.11Z"/><path class="cls-2" d="M591.65,62.71V201.37a75.43,75.43,0,0,1-4.22,26.22,52.58,52.58,0,0,1-12.09,19.34A51.16,51.16,0,0,1,556,258.88,76.58,76.58,0,0,1,530.2,263a107.43,107.43,0,0,1-20.32-1.9A89.13,89.13,0,0,1,492,255.79V232.45a82.73,82.73,0,0,0,9.35,4.07,92.79,92.79,0,0,0,20.88,5,88.84,88.84,0,0,0,10.41.63q16,0,25.17-10.13t9.14-29.81V83H497.71V62.71ZM576.89,3.51A19.48,19.48,0,0,1,584.48,5a18.58,18.58,0,0,1,6.12,4.15,20.07,20.07,0,0,1,4.08,6.19,19.15,19.15,0,0,1,1.47,7.45,19,19,0,0,1-1.47,7.53,20.07,20.07,0,0,1-4.08,6.11,18.28,18.28,0,0,1-6.12,4.15,20.23,20.23,0,0,1-15.19,0,18.14,18.14,0,0,1-6.11-4.15,19.71,19.71,0,0,1-4.08-6.11,18.84,18.84,0,0,1-1.48-7.53,19,19,0,0,1,1.48-7.45,19.72,19.72,0,0,1,4.08-6.19A18.44,18.44,0,0,1,569.29,5,19.5,19.5,0,0,1,576.89,3.51Z"/></svg>