<svg id="Layer_1" data-name="Layer 1" xmlns="http://www.w3.org/2000/svg" viewBox="0 0 232.32 274.95"><defs><style>.cls-1{fill:#f9f9f9;}.cls-2{fill:#5393fe;}</style></defs><title>nickj-short</title><path class="cls-1" d="M9.5,68.71H31.3l1,22.78A102.58,102.58,0,0,1,44.23,79.33a65.7,65.7,0,0,1,11.32-7.81,42.15,42.15,0,0,1,11.33-4.14,58.43,58.43,0,0,1,12-1.2q21.8,0,33,12.87T123,117.79V209.9H98.52V119.76q0-16.59-6.19-24.54t-18.42-8a29.37,29.37,0,0,0-8.79,1.34,32,32,0,0,0-8.93,4.64,73.2,73.2,0,0,0-10.06,8.93Q40.72,107.81,34,116.24V209.9H9.5Z"/><path class="cls-2" d="M227.76,68.71V207.37a75.67,75.67,0,0,1-4.22,26.22,52.6,52.6,0,0,1-12.1,19.34,51.12,51.12,0,0,1-19.33,11.95A76.6,76.6,0,0,1,166.3,269a107.43,107.43,0,0,1-20.32-1.9,89.32,89.32,0,0,1-17.93-5.27V238.45a84.34,84.34,0,0,0,9.35,4.07,92.7,92.7,0,0,0,20.89,5,88.8,88.8,0,0,0,10.4.63q16,0,25.18-10.13T203,208.21V89H133.82V68.71ZM213,9.51A19.45,19.45,0,0,1,220.58,11a18.38,18.38,0,0,1,6.12,4.15,19.72,19.72,0,0,1,4.08,6.19,19.69,19.69,0,0,1,0,15,19.71,19.71,0,0,1-4.08,6.11,18.09,18.09,0,0,1-6.12,4.15,20.2,20.2,0,0,1-15.18,0,18.09,18.09,0,0,1-6.12-4.15,19.89,19.89,0,0,1-4.08-6.11,19,19,0,0,1-1.47-7.53,19.15,19.15,0,0,1,1.47-7.45,19.9,19.9,0,0,1,4.08-6.19A18.38,18.38,0,0,1,205.4,11,19.45,19.45,0,0,1,213,9.51Z"/></svg>